HIERARCHY
ROOT root
{
	OFFSET 0.000000 0.000000 0.000000
	CHANNELS 6 Xposition Yposition Zposition Zrotation Yrotation Xrotation
	JOINT lhip
	{
		OFFSET 0.058581 -0.082280 -0.017664
		CHANNELS 3 Zrotation Yrotation Xrotation
		JOINT lknee
		{
			OFFSET 0.043451 -0.386469 0.008037
			CHANNELS 3 Zrotation Yrotation Xrotation
			JOINT lankle
			{
				OFFSET -0.014790 -0.426874 -0.037428
				CHANNELS 3 Zrotation Yrotation Xrotation
				JOINT ltoe
				{
					OFFSET 0.041054 -0.060286 0.122042
					CHANNELS 3 Zrotation Yrotation Xrotation
					End Site
					{
						OFFSET 0.000000 0.000000 0.000000
					}
				}
			}
		}
	}
	JOINT rhip
	{
		OFFSET -0.060310 -0.090513 -0.013543
		CHANNELS 3 Zrotation Yrotation Xrotation
		JOINT rknee
		{
			OFFSET -0.043257 -0.383688 -0.004843
			CHANNELS 3 Zrotation Yrotation Xrotation
			JOINT rankle
			{
				OFFSET 0.019056 -0.420046 -0.034562
				CHANNELS 3 Zrotation Yrotation Xrotation
				JOINT rtoe
				{
					OFFSET -0.034840 -0.062106 0.130323
					CHANNELS 3 Zrotation Yrotation Xrotation
					End Site
					{
						OFFSET 0.000000 0.000000 0.000000
					}
				}
			}
		}
	}
	JOINT lowerback
	{
		OFFSET 0.004439 0.124404 -0.038385
		CHANNELS 3 Zrotation Yrotation Xrotation
		JOINT upperback
		{
			OFFSET 0.004488 0.137956 0.026820
			CHANNELS 3 Zrotation Yrotation Xrotation
			JOINT chest
			{
				OFFSET -0.002265 0.056032 0.002855
				CHANNELS 3 Zrotation Yrotation Xrotation
				JOINT lowerneck
				{
					OFFSET -0.013390 0.211636 -0.033468
					CHANNELS 3 Zrotation Yrotation Xrotation
					JOINT upperneck
					{
						OFFSET 0.010113 0.088937 0.050410
						CHANNELS 3 Zrotation Yrotation Xrotation
						End Site
						{
							OFFSET 0.000000 0.000000 0.000000
						}
					}
				}
				JOINT lclavicle
				{
					OFFSET 0.071702 0.114000 -0.018898
					CHANNELS 3 Zrotation Yrotation Xrotation
					JOINT lshoulder
					{
						OFFSET 0.122921 0.045205 -0.019046
						CHANNELS 3 Zrotation Yrotation Xrotation
						JOINT lelbow
						{
							OFFSET 0.255332 -0.015649 -0.022946
							CHANNELS 3 Zrotation Yrotation Xrotation
							JOINT lwrist
							{
								OFFSET 0.265709 0.012698 -0.007375
								CHANNELS 3 Zrotation Yrotation Xrotation
								End Site
								{
									OFFSET 0.000000 0.000000 0.000000
								}
							}
						}
					}
				}
				JOINT rclavicle
				{
					OFFSET -0.082954 0.112472 -0.023707
					CHANNELS 3 Zrotation Yrotation Xrotation
					JOINT rshoulder
					{
						OFFSET -0.113228 0.046853 -0.008472
						CHANNELS 3 Zrotation Yrotation Xrotation
						JOINT relbow
						{
							OFFSET -0.260127 -0.014369 -0.031269
							CHANNELS 3 Zrotation Yrotation Xrotation
							JOINT rwrist
							{
								OFFSET -0.269108 0.006794 -0.006027
								CHANNELS 3 Zrotation Yrotation Xrotation
								End Site
								{
									OFFSET 0.000000 0.000000 0.000000
								}
							}
						}
					}
				}
			}
		}
	}
}
MOTION
Frames: 8
Frame Time: 0.033333
-0.105067 -1.436797 0.973969 174.654339 1.796471 115.423761 3.295052 2.685432 -26.683210 -1.954477 6.396871 -0.659193 1.398043 17.508924 -9.241975 0.000000 -0.000000 0.000000 -10.724297 -1.469757 -40.290110 -1.012161 -18.379755 24.533210 4.076107 -8.636386 -6.906978 0.000000 -0.000000 0.000000 2.197045 -1.659390 -33.997908 3.668686 -3.114734 19.344053 -0.589970 1.914101 -5.156255 -9.619133 5.744530 -3.123494 2.763508 9.745679 3.804925 -33.518050 -1.872222 -1.674259 -54.105760 -1.661531 20.722195 6.603179 -29.435774 -2.008817 -10.629899 -9.350572 7.730727 31.697025 5.970991 5.785832 48.993396 8.252149 9.314844 -16.196347 19.897598 -25.938650 3.925263 11.115904 -8.997554 
-0.107864 -1.428817 0.972814 170.801889 1.817213 112.886903 5.894414 -3.255944 -22.816059 -2.788781 13.932042 -0.522233 2.566842 19.745347 -9.818687 0.000000 -0.000000 0.000000 -11.295473 -1.810451 -39.473093 -0.304941 -15.210731 27.247294 5.144059 -6.361474 -7.707844 0.000000 -0.000000 0.000000 1.179628 2.149849 -30.522892 3.214536 -2.564956 16.763858 -1.261735 1.417105 -4.659709 -10.247329 7.723313 -1.550458 4.281996 11.633938 3.578005 -31.797136 -2.950378 -0.342684 -54.529875 -1.493063 21.327734 6.373706 -27.979658 0.397145 -10.649254 -11.962058 5.704704 32.108095 5.068843 5.195210 50.148552 6.771598 8.175866 -16.920478 20.171354 -26.909837 4.057174 11.662093 -6.890807 
-0.111235 -1.430211 0.972797 170.778601 2.428249 112.045042 5.665029 -1.869327 -21.756112 -2.692347 12.766324 -1.239902 2.317387 19.298365 -10.076081 0.000000 -0.000000 0.000000 -11.447853 -1.852588 -39.457863 0.354131 -14.203299 28.908700 5.900806 -5.661794 -8.972009 0.000000 -0.000000 0.000000 2.174938 1.506972 -28.858114 3.062827 -2.752834 15.038138 -1.266011 1.602466 -3.527791 -10.458895 10.874182 -1.550595 4.409395 14.451872 4.556058 -31.174693 -3.429270 -0.704838 -54.495391 -1.627660 20.990844 5.948282 -26.594851 1.909620 -11.215808 -12.375555 5.939684 32.089424 5.214031 5.371785 49.938910 7.467596 7.198811 -16.571706 19.585172 -27.218463 4.696123 12.210210 -6.137065 
-0.113897 -1.431283 0.972166 171.540797 3.020194 112.299551 4.819947 1.001722 -22.182257 -2.253332 9.423871 -1.418169 2.308601 18.461603 -10.084763 0.000000 -0.000000 0.000000 -11.488498 -1.920209 -39.329278 0.378353 -13.547600 28.287614 5.902285 -5.617851 -11.073571 0.000000 -0.000000 0.000000 3.610442 0.582468 -28.983890 2.929997 -2.871686 13.606567 -1.586095 1.637715 -2.590005 -10.457367 15.529067 -1.120414 4.381212 19.586766 6.703039 -30.307657 -3.786390 -0.978176 -54.373941 -1.646532 20.356463 6.334633 -24.862962 3.917928 -12.578661 -11.128326 6.796334 31.666153 4.603340 5.105445 50.321090 7.182808 6.596048 -16.224980 19.425180 -27.455388 6.239902 12.424599 -6.907433 
-0.114262 -1.430698 0.972100 171.685261 2.904350 112.510190 4.805360 0.789035 -22.427825 -2.368193 9.350966 -1.214450 2.399613 18.454377 -10.061306 0.000000 -0.000000 0.000000 -11.649072 -2.028730 -38.939369 0.008023 -13.710013 26.995773 5.699232 -6.025071 -11.457258 0.000000 -0.000000 0.000000 3.517188 0.580598 -29.414769 2.903746 -3.090149 13.383459 -1.567745 1.634492 -2.452692 -10.649145 16.955082 -0.649139 4.630609 21.492915 7.064735 -30.237101 -3.679776 -1.079502 -54.208466 -1.766513 20.234701 6.407602 -23.992639 3.834710 -11.981907 -10.683454 7.129864 31.641103 4.237666 5.051809 50.250200 7.002934 6.633992 -16.031420 19.374607 -27.586770 6.492385 12.430544 -6.849039 
-0.114734 -1.429002 0.971455 171.640027 2.532814 112.737081 4.366799 0.474614 -22.552995 -2.242871 9.275553 -1.176808 2.411262 18.582752 -10.096815 0.000000 -0.000000 0.000000 -11.992420 -2.415899 -37.839319 -0.742566 -14.429658 23.955681 5.231666 -6.529232 -11.401815 0.000000 -0.000000 0.000000 3.492466 0.804880 -29.925920 2.608297 -3.182949 12.986943 -1.712236 1.714152 -2.387400 -10.882268 19.955402 0.256387 5.140140 25.081148 7.397746 -30.278780 -3.159340 -1.468126 -53.633383 -1.902084 20.035046 6.937428 -22.626982 2.532782 -9.516816 -11.727730 6.211571 31.691160 3.404376 4.984393 50.139758 6.600367 6.886419 -15.691743 19.353283 -27.402215 6.022024 12.794571 -6.436290 
-0.113027 -1.427286 0.969633 171.461996 2.234690 113.201196 4.118224 0.467220 -23.056906 -2.142899 9.385989 -0.945409 2.201640 18.561604 -10.153584 0.000000 -0.000000 0.000000 -12.049124 -2.687307 -36.882580 -1.212008 -15.389466 20.450322 5.193506 -6.787743 -8.299548 0.000000 -0.000000 0.000000 3.469311 1.321827 -30.985758 2.375851 -3.091876 12.955300 -1.956743 1.970976 -2.406372 -10.829412 22.785848 1.193791 5.519194 27.773233 7.899931 -30.043054 -2.795599 -1.416897 -53.353206 -2.321006 19.140019 8.114147 -21.911619 0.454310 -10.508481 -10.945675 4.865612 31.256078 2.600170 5.682614 50.773999 6.599792 6.313329 -15.855501 19.212964 -27.184755 6.163616 12.394185 -5.310272 
-0.108972 -1.425324 0.967864 171.413369 1.724439 113.435944 3.993226 0.225196 -23.174500 -2.196703 9.410930 -0.905190 1.902227 18.574279 -10.146789 0.000000 -0.000000 0.000000 -11.820339 -2.971033 -35.750910 -1.639708 -15.930767 17.423660 5.210148 -6.779221 -5.066560 0.000000 -0.000000 0.000000 2.901800 1.811876 -31.945878 2.073780 -2.813854 13.203186 -1.980475 2.133511 -2.300676 -10.610467 24.899154 2.048093 5.712195 29.433176 7.817666 -29.845969 -2.624016 -1.519234 -53.001172 -2.775981 18.341210 9.214508 -21.298509 -1.628408 -9.662795 -10.666953 4.815201 31.100385 2.223868 6.008777 51.353313 6.148629 5.862167 -16.092024 18.599635 -27.319927 6.384981 12.454637 -5.072140 
